<svg width="1480" height="810" xmlns="http://www.w3.org/2000/svg" xmlns:xlink="http://www.w3.org/1999/xlink"><rect x="0" y="0" width="1480" height="810" rx="5" ry="5" style="fill:#282d35"/><circle cx="20" cy="20" r="7" style="fill:#ff5f58"/><circle cx="43" cy="20" r="7" style="fill:#ffbd2e"/><circle cx="66" cy="20" r="7" style="fill:#18c132"/><g transform="translate(20,60)"><g style="animation-duration:10.18s;animation-iteration-count:infinite;animation-name:k;animation-timing-function:steps(1,end);font-family:Monaco,Consolas,Menlo,'Bitstream Vera Sans Mono','Powerline Symbols',monospace;font-size:20px"><style>@keyframes k {14.179%{transform:translateX(-0px)}14.186%{transform:translateX(-1480px)}25.666%{transform:translateX(-2960px)}26.398%{transform:translateX(-4440px)}26.885%{transform:translateX(-5920px)}28.307%{transform:translateX(-7400px)}37.429%{transform:translateX(-8880px)}37.714%{transform:translateX(-10360px)}37.727%{transform:translateX(-11840px)}37.728%{transform:translateX(-13320px)}54.299%{transform:translateX(-14800px)}55.640%{transform:translateX(-16280px)}58.132%{transform:translateX(-17760px)}59.202%{transform:translateX(-19240px)}60.094%{transform:translateX(-20720px)}61.200%{transform:translateX(-22200px)}64.429%{transform:translateX(-23680px)}65.509%{transform:translateX(-25160px)}66.162%{transform:translateX(-26640px)}67.038%{transform:translateX(-28120px)}69.194%{transform:translateX(-29600px)}69.740%{transform:translateX(-31080px)}69.743%{transform:translateX(-32560px)}69.744%{transform:translateX(-34040px)}69.745%{transform:translateX(-35520px)}69.746%{transform:translateX(-37000px)}69.746%{transform:translateX(-38480px)}69.747%{transform:translateX(-39960px)}69.748%{transform:translateX(-41440px)}69.764%{transform:translateX(-42920px)}69.764%{transform:translateX(-44400px)}69.765%{transform:translateX(-45880px)}100.000%{transform:translateX(-47360px)}}.a{fill:#e5e5e5}</style><g transform="translate(0)"/><g transform="translate(1480)"><text x="0" y="0" class="a">$</text></g><g transform="translate(2960)"><text x="0" y="0" class="a">$</text><text x="24" y="0" class="a">h</text></g><g transform="translate(4440)"><text x="0" y="0" class="a">$</text><text x="24" y="0" class="a">he</text></g><g transform="translate(5920)"><text x="0" y="0" class="a">$</text><text x="24" y="0" class="a">hel</text></g><g transform="translate(7400)"><text x="0" y="0" class="a">$</text><text x="24" y="0" class="a">help</text></g><g transform="translate(8880)"><text x="0" y="0" class="a">$</text><text x="24" y="0" class="a">help</text></g><g transform="translate(10360)"><text x="0" y="0" class="a">$</text><text x="24" y="0" class="a">help</text><text x="0" y="25" class="a">zsh:</text><text x="60" y="25" class="a">command</text><text x="156" y="25" class="a">not</text><text x="204" y="25" class="a">found:</text><text x="288" y="25" class="a">help</text></g><g transform="translate(11840)"><text x="0" y="0" class="a">$</text><text x="24" y="0" class="a">help</text><text x="0" y="25" class="a">zsh:</text><text x="60" y="25" class="a">command</text><text x="156" y="25" class="a">not</text><text x="204" y="25" class="a">found:</text><text x="288" y="25" class="a">help</text></g><g transform="translate(13320)"><text x="0" y="0" class="a">$</text><text x="24" y="0" class="a">help</text><text x="0" y="25" class="a">zsh:</text><text x="60" y="25" class="a">command</text><text x="156" y="25" class="a">not</text><text x="204" y="25" class="a">found:</text><text x="288" y="25" class="a">help</text><text x="0" y="50" class="a">$</text></g><g transform="translate(14800)"><text x="0" y="0" class="a">$</text><text x="24" y="0" class="a">help</text><text x="0" y="25" class="a">zsh:</text><text x="60" y="25" class="a">command</text><text x="156" y="25" class="a">not</text><text x="204" y="25" class="a">found:</text><text x="288" y="25" class="a">help</text><text x="0" y="50" class="a">$</text><text x="24" y="50" class="a">.</text></g><g transform="translate(16280)"><text x="0" y="0" class="a">$</text><text x="24" y="0" class="a">help</text><text x="0" y="25" class="a">zsh:</text><text x="60" y="25" class="a">command</text><text x="156" y="25" class="a">not</text><text x="204" y="25" class="a">found:</text><text x="288" y="25" class="a">help</text><text x="0" y="50" class="a">$</text><text x="24" y="50" class="a">./</text></g><g transform="translate(17760)"><text x="0" y="0" class="a">$</text><text x="24" y="0" class="a">help</text><text x="0" y="25" class="a">zsh:</text><text x="60" y="25" class="a">command</text><text x="156" y="25" class="a">not</text><text x="204" y="25" class="a">found:</text><text x="288" y="25" class="a">help</text><text x="0" y="50" class="a">$</text><text x="24" y="50" class="a">./c</text></g><g transform="translate(19240)"><text x="0" y="0" class="a">$</text><text x="24" y="0" class="a">help</text><text x="0" y="25" class="a">zsh:</text><text x="60" y="25" class="a">command</text><text x="156" y="25" class="a">not</text><text x="204" y="25" class="a">found:</text><text x="288" y="25" class="a">help</text><text x="0" y="50" class="a">$</text><text x="24" y="50" class="a">./cl</text></g><g transform="translate(20720)"><text x="0" y="0" class="a">$</text><text x="24" y="0" class="a">help</text><text x="0" y="25" class="a">zsh:</text><text x="60" y="25" class="a">command</text><text x="156" y="25" class="a">not</text><text x="204" y="25" class="a">found:</text><text x="288" y="25" class="a">help</text><text x="0" y="50" class="a">$</text><text x="24" y="50" class="a">./cli</text></g><g transform="translate(22200)"><text x="0" y="0" class="a">$</text><text x="24" y="0" class="a">help</text><text x="0" y="25" class="a">zsh:</text><text x="60" y="25" class="a">command</text><text x="156" y="25" class="a">not</text><text x="204" y="25" class="a">found:</text><text x="288" y="25" class="a">help</text><text x="0" y="50" class="a">$</text><text x="24" y="50" class="a">./cli.js</text></g><g transform="translate(23680)"><text x="0" y="0" class="a">$</text><text x="24" y="0" class="a">help</text><text x="0" y="25" class="a">zsh:</text><text x="60" y="25" class="a">command</text><text x="156" y="25" class="a">not</text><text x="204" y="25" class="a">found:</text><text x="288" y="25" class="a">help</text><text x="0" y="50" class="a">$</text><text x="24" y="50" class="a">./cli.js</text><text x="132" y="50" class="a">h</text></g><g transform="translate(25160)"><text x="0" y="0" class="a">$</text><text x="24" y="0" class="a">help</text><text x="0" y="25" class="a">zsh:</text><text x="60" y="25" class="a">command</text><text x="156" y="25" class="a">not</text><text x="204" y="25" class="a">found:</text><text x="288" y="25" class="a">help</text><text x="0" y="50" class="a">$</text><text x="24" y="50" class="a">./cli.js</text><text x="132" y="50" class="a">he</text></g><g transform="translate(26640)"><text x="0" y="0" class="a">$</text><text x="24" y="0" class="a">help</text><text x="0" y="25" class="a">zsh:</text><text x="60" y="25" class="a">command</text><text x="156" y="25" class="a">not</text><text x="204" y="25" class="a">found:</text><text x="288" y="25" class="a">help</text><text x="0" y="50" class="a">$</text><text x="24" y="50" class="a">./cli.js</text><text x="132" y="50" class="a">hel</text></g><g transform="translate(28120)"><text x="0" y="0" class="a">$</text><text x="24" y="0" class="a">help</text><text x="0" y="25" class="a">zsh:</text><text x="60" y="25" class="a">command</text><text x="156" y="25" class="a">not</text><text x="204" y="25" class="a">found:</text><text x="288" y="25" class="a">help</text><text x="0" y="50" class="a">$</text><text x="24" y="50" class="a">./cli.js</text><text x="132" y="50" class="a">help</text></g><g transform="translate(29600)"><text x="0" y="0" class="a">$</text><text x="24" y="0" class="a">help</text><text x="0" y="25" class="a">zsh:</text><text x="60" y="25" class="a">command</text><text x="156" y="25" class="a">not</text><text x="204" y="25" class="a">found:</text><text x="288" y="25" class="a">help</text><text x="0" y="50" class="a">$</text><text x="24" y="50" class="a">./cli.js</text><text x="132" y="50" class="a">help</text></g><g transform="translate(31080)"><text x="0" y="0" class="a">$</text><text x="24" y="0" class="a">help</text><text x="0" y="25" class="a">zsh:</text><text x="60" y="25" class="a">command</text><text x="156" y="25" class="a">not</text><text x="204" y="25" class="a">found:</text><text x="288" y="25" class="a">help</text><text x="0" y="50" class="a">$</text><text x="24" y="50" class="a">./cli.js</text><text x="132" y="50" class="a">help</text><text x="0" y="75" class="a">📋</text><text x="24" y="75" class="a">Taskly</text><text x="108" y="75" class="a">-</text><text x="132" y="75" class="a">Simple</text><text x="216" y="75" class="a">Task</text><text x="276" y="75" class="a">Management</text></g><g transform="translate(32560)"><text x="0" y="0" class="a">$</text><text x="24" y="0" class="a">help</text><text x="0" y="25" class="a">zsh:</text><text x="60" y="25" class="a">command</text><text x="156" y="25" class="a">not</text><text x="204" y="25" class="a">found:</text><text x="288" y="25" class="a">help</text><text x="0" y="50" class="a">$</text><text x="24" y="50" class="a">./cli.js</text><text x="132" y="50" class="a">help</text><text x="0" y="75" class="a">📋</text><text x="24" y="75" class="a">Taskly</text><text x="108" y="75" class="a">-</text><text x="132" y="75" class="a">Simple</text><text x="216" y="75" class="a">Task</text><text x="276" y="75" class="a">Management</text></g><g transform="translate(34040)"><text x="0" y="0" class="a">$</text><text x="24" y="0" class="a">help</text><text x="0" y="25" class="a">zsh:</text><text x="60" y="25" class="a">command</text><text x="156" y="25" class="a">not</text><text x="204" y="25" class="a">found:</text><text x="288" y="25" class="a">help</text><text x="0" y="50" class="a">$</text><text x="24" y="50" class="a">./cli.js</text><text x="132" y="50" class="a">help</text><text x="0" y="75" class="a">📋</text><text x="24" y="75" class="a">Taskly</text><text x="108" y="75" class="a">-</text><text x="132" y="75" class="a">Simple</text><text x="216" y="75" class="a">Task</text><text x="276" y="75" class="a">Management</text><text x="0" y="125" class="a">Usage:</text><text x="24" y="150" class="a">taskly</text><text x="108" y="150" class="a">&lt;command></text><text x="228" y="150" class="a">[options]</text><text x="0" y="200" class="a">Commands:</text><text x="24" y="225" class="a">init</text><text x="84" y="225" class="a">[project-name]</text><text x="312" y="225" class="a">Initialize</text><text x="444" y="225" class="a">new</text><text x="492" y="225" class="a">task</text><text x="552" y="225" class="a">workspace</text><text x="24" y="250" class="a">add</text><text x="72" y="250" class="a">&lt;title></text><text x="168" y="250" class="a">[--priority=high|medium|low]</text><text x="540" y="250" class="a">Add</text><text x="588" y="250" class="a">new</text><text x="636" y="250" class="a">task</text><text x="24" y="275" class="a">list</text><text x="84" y="275" class="a">[--completed|--pending]</text><text x="528" y="275" class="a">List</text><text x="588" y="275" class="a">tasks</text></g><g transform="translate(35520)"><text x="0" y="0" class="a">$</text><text x="24" y="0" class="a">help</text><text x="0" y="25" class="a">zsh:</text><text x="60" y="25" class="a">command</text><text x="156" y="25" class="a">not</text><text x="204" y="25" class="a">found:</text><text x="288" y="25" class="a">help</text><text x="0" y="50" class="a">$</text><text x="24" y="50" class="a">./cli.js</text><text x="132" y="50" class="a">help</text><text x="0" y="75" class="a">📋</text><text x="24" y="75" class="a">Taskly</text><text x="108" y="75" class="a">-</text><text x="132" y="75" class="a">Simple</text><text x="216" y="75" class="a">Task</text><text x="276" y="75" class="a">Management</text><text x="0" y="125" class="a">Usage:</text><text x="24" y="150" class="a">taskly</text><text x="108" y="150" class="a">&lt;command></text><text x="228" y="150" class="a">[options]</text><text x="0" y="200" class="a">Commands:</text><text x="24" y="225" class="a">init</text><text x="84" y="225" class="a">[project-name]</text><text x="312" y="225" class="a">Initialize</text><text x="444" y="225" class="a">new</text><text x="492" y="225" class="a">task</text><text x="552" y="225" class="a">workspace</text><text x="24" y="250" class="a">add</text><text x="72" y="250" class="a">&lt;title></text><text x="168" y="250" class="a">[--priority=high|medium|low]</text><text x="540" y="250" class="a">Add</text><text x="588" y="250" class="a">new</text><text x="636" y="250" class="a">task</text><text x="24" y="275" class="a">list</text><text x="84" y="275" class="a">[--completed|--pending]</text><text x="528" y="275" class="a">List</text><text x="588" y="275" class="a">tasks</text><text x="24" y="300" class="a">complete</text><text x="132" y="300" class="a">&lt;number></text><text x="312" y="300" class="a">Mark</text><text x="372" y="300" class="a">task</text><text x="432" y="300" class="a">as</text><text x="468" y="300" class="a">completed</text><text x="24" y="325" class="a">remove</text><text x="108" y="325" class="a">&lt;number></text><text x="312" y="325" class="a">Remove</text><text x="396" y="325" class="a">task</text><text x="24" y="350" class="a">help</text><text x="312" y="350" class="a">Show</text><text x="372" y="350" class="a">this</text><text x="432" y="350" class="a">help</text><text x="0" y="400" class="a">Examples:</text></g><g transform="translate(37000)"><text x="0" y="0" class="a">$</text><text x="24" y="0" class="a">help</text><text x="0" y="25" class="a">zsh:</text><text x="60" y="25" class="a">command</text><text x="156" y="25" class="a">not</text><text x="204" y="25" class="a">found:</text><text x="288" y="25" class="a">help</text><text x="0" y="50" class="a">$</text><text x="24" y="50" class="a">./cli.js</text><text x="132" y="50" class="a">help</text><text x="0" y="75" class="a">📋</text><text x="24" y="75" class="a">Taskly</text><text x="108" y="75" class="a">-</text><text x="132" y="75" class="a">Simple</text><text x="216" y="75" class="a">Task</text><text x="276" y="75" class="a">Management</text><text x="0" y="125" class="a">Usage:</text><text x="24" y="150" class="a">taskly</text><text x="108" y="150" class="a">&lt;command></text><text x="228" y="150" class="a">[options]</text><text x="0" y="200" class="a">Commands:</text><text x="24" y="225" class="a">init</text><text x="84" y="225" class="a">[project-name]</text><text x="312" y="225" class="a">Initialize</text><text x="444" y="225" class="a">new</text><text x="492" y="225" class="a">task</text><text x="552" y="225" class="a">workspace</text><text x="24" y="250" class="a">add</text><text x="72" y="250" class="a">&lt;title></text><text x="168" y="250" class="a">[--priority=high|medium|low]</text><text x="540" y="250" class="a">Add</text><text x="588" y="250" class="a">new</text><text x="636" y="250" class="a">task</text><text x="24" y="275" class="a">list</text><text x="84" y="275" class="a">[--completed|--pending]</text><text x="528" y="275" class="a">List</text><text x="588" y="275" class="a">tasks</text><text x="24" y="300" class="a">complete</text><text x="132" y="300" class="a">&lt;number></text><text x="312" y="300" class="a">Mark</text><text x="372" y="300" class="a">task</text><text x="432" y="300" class="a">as</text><text x="468" y="300" class="a">completed</text><text x="24" y="325" class="a">remove</text><text x="108" y="325" class="a">&lt;number></text><text x="312" y="325" class="a">Remove</text><text x="396" y="325" class="a">task</text><text x="24" y="350" class="a">help</text><text x="312" y="350" class="a">Show</text><text x="372" y="350" class="a">this</text><text x="432" y="350" class="a">help</text><text x="0" y="400" class="a">Examples:</text><text x="24" y="425" class="a">taskly</text><text x="108" y="425" class="a">init</text><text x="168" y="425" class="a">my-project</text><text x="24" y="450" class="a">taskly</text><text x="108" y="450" class="a">add</text><text x="156" y="450" class="a">"Buy</text><text x="216" y="450" class="a">groceries"</text><text x="348" y="450" class="a">--priority=high</text></g><g transform="translate(38480)"><text x="0" y="0" class="a">$</text><text x="24" y="0" class="a">help</text><text x="0" y="25" class="a">zsh:</text><text x="60" y="25" class="a">command</text><text x="156" y="25" class="a">not</text><text x="204" y="25" class="a">found:</text><text x="288" y="25" class="a">help</text><text x="0" y="50" class="a">$</text><text x="24" y="50" class="a">./cli.js</text><text x="132" y="50" class="a">help</text><text x="0" y="75" class="a">📋</text><text x="24" y="75" class="a">Taskly</text><text x="108" y="75" class="a">-</text><text x="132" y="75" class="a">Simple</text><text x="216" y="75" class="a">Task</text><text x="276" y="75" class="a">Management</text><text x="0" y="125" class="a">Usage:</text><text x="24" y="150" class="a">taskly</text><text x="108" y="150" class="a">&lt;command></text><text x="228" y="150" class="a">[options]</text><text x="0" y="200" class="a">Commands:</text><text x="24" y="225" class="a">init</text><text x="84" y="225" class="a">[project-name]</text><text x="312" y="225" class="a">Initialize</text><text x="444" y="225" class="a">new</text><text x="492" y="225" class="a">task</text><text x="552" y="225" class="a">workspace</text><text x="24" y="250" class="a">add</text><text x="72" y="250" class="a">&lt;title></text><text x="168" y="250" class="a">[--priority=high|medium|low]</text><text x="540" y="250" class="a">Add</text><text x="588" y="250" class="a">new</text><text x="636" y="250" class="a">task</text><text x="24" y="275" class="a">list</text><text x="84" y="275" class="a">[--completed|--pending]</text><text x="528" y="275" class="a">List</text><text x="588" y="275" class="a">tasks</text><text x="24" y="300" class="a">complete</text><text x="132" y="300" class="a">&lt;number></text><text x="312" y="300" class="a">Mark</text><text x="372" y="300" class="a">task</text><text x="432" y="300" class="a">as</text><text x="468" y="300" class="a">completed</text><text x="24" y="325" class="a">remove</text><text x="108" y="325" class="a">&lt;number></text><text x="312" y="325" class="a">Remove</text><text x="396" y="325" class="a">task</text><text x="24" y="350" class="a">help</text><text x="312" y="350" class="a">Show</text><text x="372" y="350" class="a">this</text><text x="432" y="350" class="a">help</text><text x="0" y="400" class="a">Examples:</text><text x="24" y="425" class="a">taskly</text><text x="108" y="425" class="a">init</text><text x="168" y="425" class="a">my-project</text><text x="24" y="450" class="a">taskly</text><text x="108" y="450" class="a">add</text><text x="156" y="450" class="a">"Buy</text><text x="216" y="450" class="a">groceries"</text><text x="348" y="450" class="a">--priority=high</text><text x="24" y="475" class="a">taskly</text><text x="108" y="475" class="a">list</text><text x="168" y="475" class="a">--pending</text><text x="24" y="500" class="a">taskly</text><text x="108" y="500" class="a">complete</text><text x="216" y="500" class="a">1</text></g><g transform="translate(39960)"><text x="0" y="0" class="a">$</text><text x="24" y="0" class="a">help</text><text x="0" y="25" class="a">zsh:</text><text x="60" y="25" class="a">command</text><text x="156" y="25" class="a">not</text><text x="204" y="25" class="a">found:</text><text x="288" y="25" class="a">help</text><text x="0" y="50" class="a">$</text><text x="24" y="50" class="a">./cli.js</text><text x="132" y="50" class="a">help</text><text x="0" y="75" class="a">📋</text><text x="24" y="75" class="a">Taskly</text><text x="108" y="75" class="a">-</text><text x="132" y="75" class="a">Simple</text><text x="216" y="75" class="a">Task</text><text x="276" y="75" class="a">Management</text><text x="0" y="125" class="a">Usage:</text><text x="24" y="150" class="a">taskly</text><text x="108" y="150" class="a">&lt;command></text><text x="228" y="150" class="a">[options]</text><text x="0" y="200" class="a">Commands:</text><text x="24" y="225" class="a">init</text><text x="84" y="225" class="a">[project-name]</text><text x="312" y="225" class="a">Initialize</text><text x="444" y="225" class="a">new</text><text x="492" y="225" class="a">task</text><text x="552" y="225" class="a">workspace</text><text x="24" y="250" class="a">add</text><text x="72" y="250" class="a">&lt;title></text><text x="168" y="250" class="a">[--priority=high|medium|low]</text><text x="540" y="250" class="a">Add</text><text x="588" y="250" class="a">new</text><text x="636" y="250" class="a">task</text><text x="24" y="275" class="a">list</text><text x="84" y="275" class="a">[--completed|--pending]</text><text x="528" y="275" class="a">List</text><text x="588" y="275" class="a">tasks</text><text x="24" y="300" class="a">complete</text><text x="132" y="300" class="a">&lt;number></text><text x="312" y="300" class="a">Mark</text><text x="372" y="300" class="a">task</text><text x="432" y="300" class="a">as</text><text x="468" y="300" class="a">completed</text><text x="24" y="325" class="a">remove</text><text x="108" y="325" class="a">&lt;number></text><text x="312" y="325" class="a">Remove</text><text x="396" y="325" class="a">task</text><text x="24" y="350" class="a">help</text><text x="312" y="350" class="a">Show</text><text x="372" y="350" class="a">this</text><text x="432" y="350" class="a">help</text><text x="0" y="400" class="a">Examples:</text><text x="24" y="425" class="a">taskly</text><text x="108" y="425" class="a">init</text><text x="168" y="425" class="a">my-project</text><text x="24" y="450" class="a">taskly</text><text x="108" y="450" class="a">add</text><text x="156" y="450" class="a">"Buy</text><text x="216" y="450" class="a">groceries"</text><text x="348" y="450" class="a">--priority=high</text><text x="24" y="475" class="a">taskly</text><text x="108" y="475" class="a">list</text><text x="168" y="475" class="a">--pending</text><text x="24" y="500" class="a">taskly</text><text x="108" y="500" class="a">complete</text><text x="216" y="500" class="a">1</text></g><g transform="translate(41440)"><text x="0" y="0" class="a">$</text><text x="24" y="0" class="a">help</text><text x="0" y="25" class="a">zsh:</text><text x="60" y="25" class="a">command</text><text x="156" y="25" class="a">not</text><text x="204" y="25" class="a">found:</text><text x="288" y="25" class="a">help</text><text x="0" y="50" class="a">$</text><text x="24" y="50" class="a">./cli.js</text><text x="132" y="50" class="a">help</text><text x="0" y="75" class="a">📋</text><text x="24" y="75" class="a">Taskly</text><text x="108" y="75" class="a">-</text><text x="132" y="75" class="a">Simple</text><text x="216" y="75" class="a">Task</text><text x="276" y="75" class="a">Management</text><text x="0" y="125" class="a">Usage:</text><text x="24" y="150" class="a">taskly</text><text x="108" y="150" class="a">&lt;command></text><text x="228" y="150" class="a">[options]</text><text x="0" y="200" class="a">Commands:</text><text x="24" y="225" class="a">init</text><text x="84" y="225" class="a">[project-name]</text><text x="312" y="225" class="a">Initialize</text><text x="444" y="225" class="a">new</text><text x="492" y="225" class="a">task</text><text x="552" y="225" class="a">workspace</text><text x="24" y="250" class="a">add</text><text x="72" y="250" class="a">&lt;title></text><text x="168" y="250" class="a">[--priority=high|medium|low]</text><text x="540" y="250" class="a">Add</text><text x="588" y="250" class="a">new</text><text x="636" y="250" class="a">task</text><text x="24" y="275" class="a">list</text><text x="84" y="275" class="a">[--completed|--pending]</text><text x="528" y="275" class="a">List</text><text x="588" y="275" class="a">tasks</text><text x="24" y="300" class="a">complete</text><text x="132" y="300" class="a">&lt;number></text><text x="312" y="300" class="a">Mark</text><text x="372" y="300" class="a">task</text><text x="432" y="300" class="a">as</text><text x="468" y="300" class="a">completed</text><text x="24" y="325" class="a">remove</text><text x="108" y="325" class="a">&lt;number></text><text x="312" y="325" class="a">Remove</text><text x="396" y="325" class="a">task</text><text x="24" y="350" class="a">help</text><text x="312" y="350" class="a">Show</text><text x="372" y="350" class="a">this</text><text x="432" y="350" class="a">help</text><text x="0" y="400" class="a">Examples:</text><text x="24" y="425" class="a">taskly</text><text x="108" y="425" class="a">init</text><text x="168" y="425" class="a">my-project</text><text x="24" y="450" class="a">taskly</text><text x="108" y="450" class="a">add</text><text x="156" y="450" class="a">"Buy</text><text x="216" y="450" class="a">groceries"</text><text x="348" y="450" class="a">--priority=high</text><text x="24" y="475" class="a">taskly</text><text x="108" y="475" class="a">list</text><text x="168" y="475" class="a">--pending</text><text x="24" y="500" class="a">taskly</text><text x="108" y="500" class="a">complete</text><text x="216" y="500" class="a">1</text><text x="0" y="550" class="a">📚</text><text x="24" y="550" class="a">Documentation:</text><text x="204" y="550" class="a">https://github.com/deepguide-ai/dg-demo</text></g><g transform="translate(42920)"><text x="0" y="0" class="a">$</text><text x="24" y="0" class="a">help</text><text x="0" y="25" class="a">zsh:</text><text x="60" y="25" class="a">command</text><text x="156" y="25" class="a">not</text><text x="204" y="25" class="a">found:</text><text x="288" y="25" class="a">help</text><text x="0" y="50" class="a">$</text><text x="24" y="50" class="a">./cli.js</text><text x="132" y="50" class="a">help</text><text x="0" y="75" class="a">📋</text><text x="24" y="75" class="a">Taskly</text><text x="108" y="75" class="a">-</text><text x="132" y="75" class="a">Simple</text><text x="216" y="75" class="a">Task</text><text x="276" y="75" class="a">Management</text><text x="0" y="125" class="a">Usage:</text><text x="24" y="150" class="a">taskly</text><text x="108" y="150" class="a">&lt;command></text><text x="228" y="150" class="a">[options]</text><text x="0" y="200" class="a">Commands:</text><text x="24" y="225" class="a">init</text><text x="84" y="225" class="a">[project-name]</text><text x="312" y="225" class="a">Initialize</text><text x="444" y="225" class="a">new</text><text x="492" y="225" class="a">task</text><text x="552" y="225" class="a">workspace</text><text x="24" y="250" class="a">add</text><text x="72" y="250" class="a">&lt;title></text><text x="168" y="250" class="a">[--priority=high|medium|low]</text><text x="540" y="250" class="a">Add</text><text x="588" y="250" class="a">new</text><text x="636" y="250" class="a">task</text><text x="24" y="275" class="a">list</text><text x="84" y="275" class="a">[--completed|--pending]</text><text x="528" y="275" class="a">List</text><text x="588" y="275" class="a">tasks</text><text x="24" y="300" class="a">complete</text><text x="132" y="300" class="a">&lt;number></text><text x="312" y="300" class="a">Mark</text><text x="372" y="300" class="a">task</text><text x="432" y="300" class="a">as</text><text x="468" y="300" class="a">completed</text><text x="24" y="325" class="a">remove</text><text x="108" y="325" class="a">&lt;number></text><text x="312" y="325" class="a">Remove</text><text x="396" y="325" class="a">task</text><text x="24" y="350" class="a">help</text><text x="312" y="350" class="a">Show</text><text x="372" y="350" class="a">this</text><text x="432" y="350" class="a">help</text><text x="0" y="400" class="a">Examples:</text><text x="24" y="425" class="a">taskly</text><text x="108" y="425" class="a">init</text><text x="168" y="425" class="a">my-project</text><text x="24" y="450" class="a">taskly</text><text x="108" y="450" class="a">add</text><text x="156" y="450" class="a">"Buy</text><text x="216" y="450" class="a">groceries"</text><text x="348" y="450" class="a">--priority=high</text><text x="24" y="475" class="a">taskly</text><text x="108" y="475" class="a">list</text><text x="168" y="475" class="a">--pending</text><text x="24" y="500" class="a">taskly</text><text x="108" y="500" class="a">complete</text><text x="216" y="500" class="a">1</text><text x="0" y="550" class="a">📚</text><text x="24" y="550" class="a">Documentation:</text><text x="204" y="550" class="a">https://github.com/deepguide-ai/dg-demo</text></g><g transform="translate(44400)"><text x="0" y="0" class="a">$</text><text x="24" y="0" class="a">help</text><text x="0" y="25" class="a">zsh:</text><text x="60" y="25" class="a">command</text><text x="156" y="25" class="a">not</text><text x="204" y="25" class="a">found:</text><text x="288" y="25" class="a">help</text><text x="0" y="50" class="a">$</text><text x="24" y="50" class="a">./cli.js</text><text x="132" y="50" class="a">help</text><text x="0" y="75" class="a">📋</text><text x="24" y="75" class="a">Taskly</text><text x="108" y="75" class="a">-</text><text x="132" y="75" class="a">Simple</text><text x="216" y="75" class="a">Task</text><text x="276" y="75" class="a">Management</text><text x="0" y="125" class="a">Usage:</text><text x="24" y="150" class="a">taskly</text><text x="108" y="150" class="a">&lt;command></text><text x="228" y="150" class="a">[options]</text><text x="0" y="200" class="a">Commands:</text><text x="24" y="225" class="a">init</text><text x="84" y="225" class="a">[project-name]</text><text x="312" y="225" class="a">Initialize</text><text x="444" y="225" class="a">new</text><text x="492" y="225" class="a">task</text><text x="552" y="225" class="a">workspace</text><text x="24" y="250" class="a">add</text><text x="72" y="250" class="a">&lt;title></text><text x="168" y="250" class="a">[--priority=high|medium|low]</text><text x="540" y="250" class="a">Add</text><text x="588" y="250" class="a">new</text><text x="636" y="250" class="a">task</text><text x="24" y="275" class="a">list</text><text x="84" y="275" class="a">[--completed|--pending]</text><text x="528" y="275" class="a">List</text><text x="588" y="275" class="a">tasks</text><text x="24" y="300" class="a">complete</text><text x="132" y="300" class="a">&lt;number></text><text x="312" y="300" class="a">Mark</text><text x="372" y="300" class="a">task</text><text x="432" y="300" class="a">as</text><text x="468" y="300" class="a">completed</text><text x="24" y="325" class="a">remove</text><text x="108" y="325" class="a">&lt;number></text><text x="312" y="325" class="a">Remove</text><text x="396" y="325" class="a">task</text><text x="24" y="350" class="a">help</text><text x="312" y="350" class="a">Show</text><text x="372" y="350" class="a">this</text><text x="432" y="350" class="a">help</text><text x="0" y="400" class="a">Examples:</text><text x="24" y="425" class="a">taskly</text><text x="108" y="425" class="a">init</text><text x="168" y="425" class="a">my-project</text><text x="24" y="450" class="a">taskly</text><text x="108" y="450" class="a">add</text><text x="156" y="450" class="a">"Buy</text><text x="216" y="450" class="a">groceries"</text><text x="348" y="450" class="a">--priority=high</text><text x="24" y="475" class="a">taskly</text><text x="108" y="475" class="a">list</text><text x="168" y="475" class="a">--pending</text><text x="24" y="500" class="a">taskly</text><text x="108" y="500" class="a">complete</text><text x="216" y="500" class="a">1</text><text x="0" y="550" class="a">📚</text><text x="24" y="550" class="a">Documentation:</text><text x="204" y="550" class="a">https://github.com/deepguide-ai/dg-demo</text><text x="0" y="575" class="a">$</text></g><g transform="translate(45880)"><text x="0" y="0" class="a">$</text><text x="24" y="0" class="a">help</text><text x="0" y="25" class="a">zsh:</text><text x="60" y="25" class="a">command</text><text x="156" y="25" class="a">not</text><text x="204" y="25" class="a">found:</text><text x="288" y="25" class="a">help</text><text x="0" y="50" class="a">$</text><text x="24" y="50" class="a">./cli.js</text><text x="132" y="50" class="a">help</text><text x="0" y="75" class="a">📋</text><text x="24" y="75" class="a">Taskly</text><text x="108" y="75" class="a">-</text><text x="132" y="75" class="a">Simple</text><text x="216" y="75" class="a">Task</text><text x="276" y="75" class="a">Management</text><text x="0" y="125" class="a">Usage:</text><text x="24" y="150" class="a">taskly</text><text x="108" y="150" class="a">&lt;command></text><text x="228" y="150" class="a">[options]</text><text x="0" y="200" class="a">Commands:</text><text x="24" y="225" class="a">init</text><text x="84" y="225" class="a">[project-name]</text><text x="312" y="225" class="a">Initialize</text><text x="444" y="225" class="a">new</text><text x="492" y="225" class="a">task</text><text x="552" y="225" class="a">workspace</text><text x="24" y="250" class="a">add</text><text x="72" y="250" class="a">&lt;title></text><text x="168" y="250" class="a">[--priority=high|medium|low]</text><text x="540" y="250" class="a">Add</text><text x="588" y="250" class="a">new</text><text x="636" y="250" class="a">task</text><text x="24" y="275" class="a">list</text><text x="84" y="275" class="a">[--completed|--pending]</text><text x="528" y="275" class="a">List</text><text x="588" y="275" class="a">tasks</text><text x="24" y="300" class="a">complete</text><text x="132" y="300" class="a">&lt;number></text><text x="312" y="300" class="a">Mark</text><text x="372" y="300" class="a">task</text><text x="432" y="300" class="a">as</text><text x="468" y="300" class="a">completed</text><text x="24" y="325" class="a">remove</text><text x="108" y="325" class="a">&lt;number></text><text x="312" y="325" class="a">Remove</text><text x="396" y="325" class="a">task</text><text x="24" y="350" class="a">help</text><text x="312" y="350" class="a">Show</text><text x="372" y="350" class="a">this</text><text x="432" y="350" class="a">help</text><text x="0" y="400" class="a">Examples:</text><text x="24" y="425" class="a">taskly</text><text x="108" y="425" class="a">init</text><text x="168" y="425" class="a">my-project</text><text x="24" y="450" class="a">taskly</text><text x="108" y="450" class="a">add</text><text x="156" y="450" class="a">"Buy</text><text x="216" y="450" class="a">groceries"</text><text x="348" y="450" class="a">--priority=high</text><text x="24" y="475" class="a">taskly</text><text x="108" y="475" class="a">list</text><text x="168" y="475" class="a">--pending</text><text x="24" y="500" class="a">taskly</text><text x="108" y="500" class="a">complete</text><text x="216" y="500" class="a">1</text><text x="0" y="550" class="a">📚</text><text x="24" y="550" class="a">Documentation:</text><text x="204" y="550" class="a">https://github.com/deepguide-ai/dg-demo</text><text x="0" y="575" class="a">$</text></g><g transform="translate(47360)"><text x="0" y="0" class="a">$</text><text x="24" y="0" class="a">help</text><text x="0" y="25" class="a">zsh:</text><text x="60" y="25" class="a">command</text><text x="156" y="25" class="a">not</text><text x="204" y="25" class="a">found:</text><text x="288" y="25" class="a">help</text><text x="0" y="50" class="a">$</text><text x="24" y="50" class="a">./cli.js</text><text x="132" y="50" class="a">help</text><text x="0" y="75" class="a">📋</text><text x="24" y="75" class="a">Taskly</text><text x="108" y="75" class="a">-</text><text x="132" y="75" class="a">Simple</text><text x="216" y="75" class="a">Task</text><text x="276" y="75" class="a">Management</text><text x="0" y="125" class="a">Usage:</text><text x="24" y="150" class="a">taskly</text><text x="108" y="150" class="a">&lt;command></text><text x="228" y="150" class="a">[options]</text><text x="0" y="200" class="a">Commands:</text><text x="24" y="225" class="a">init</text><text x="84" y="225" class="a">[project-name]</text><text x="312" y="225" class="a">Initialize</text><text x="444" y="225" class="a">new</text><text x="492" y="225" class="a">task</text><text x="552" y="225" class="a">workspace</text><text x="24" y="250" class="a">add</text><text x="72" y="250" class="a">&lt;title></text><text x="168" y="250" class="a">[--priority=high|medium|low]</text><text x="540" y="250" class="a">Add</text><text x="588" y="250" class="a">new</text><text x="636" y="250" class="a">task</text><text x="24" y="275" class="a">list</text><text x="84" y="275" class="a">[--completed|--pending]</text><text x="528" y="275" class="a">List</text><text x="588" y="275" class="a">tasks</text><text x="24" y="300" class="a">complete</text><text x="132" y="300" class="a">&lt;number></text><text x="312" y="300" class="a">Mark</text><text x="372" y="300" class="a">task</text><text x="432" y="300" class="a">as</text><text x="468" y="300" class="a">completed</text><text x="24" y="325" class="a">remove</text><text x="108" y="325" class="a">&lt;number></text><text x="312" y="325" class="a">Remove</text><text x="396" y="325" class="a">task</text><text x="24" y="350" class="a">help</text><text x="312" y="350" class="a">Show</text><text x="372" y="350" class="a">this</text><text x="432" y="350" class="a">help</text><text x="0" y="400" class="a">Examples:</text><text x="24" y="425" class="a">taskly</text><text x="108" y="425" class="a">init</text><text x="168" y="425" class="a">my-project</text><text x="24" y="450" class="a">taskly</text><text x="108" y="450" class="a">add</text><text x="156" y="450" class="a">"Buy</text><text x="216" y="450" class="a">groceries"</text><text x="348" y="450" class="a">--priority=high</text><text x="24" y="475" class="a">taskly</text><text x="108" y="475" class="a">list</text><text x="168" y="475" class="a">--pending</text><text x="24" y="500" class="a">taskly</text><text x="108" y="500" class="a">complete</text><text x="216" y="500" class="a">1</text><text x="0" y="550" class="a">📚</text><text x="24" y="550" class="a">Documentation:</text><text x="204" y="550" class="a">https://github.com/deepguide-ai/dg-demo</text><text x="0" y="575" class="a">$</text></g></g></g></svg>