<svg width="1480" height="810" xmlns="http://www.w3.org/2000/svg" xmlns:xlink="http://www.w3.org/1999/xlink"><rect x="0" y="0" width="1480" height="810" rx="5" ry="5" style="fill:#282d35"/><circle cx="20" cy="20" r="7" style="fill:#ff5f58"/><circle cx="43" cy="20" r="7" style="fill:#ffbd2e"/><circle cx="66" cy="20" r="7" style="fill:#18c132"/><g transform="translate(20,60)"><g style="animation-duration:4.71s;animation-iteration-count:infinite;animation-name:k;animation-timing-function:steps(1,end);font-family:Monaco,Consolas,Menlo,'Bitstream Vera Sans Mono','Powerline Symbols',monospace;font-size:20px"><style>@keyframes k {25.416%{transform:translateX(-0px)}25.431%{transform:translateX(-1480px)}34.032%{transform:translateX(-2960px)}37.559%{transform:translateX(-4440px)}45.666%{transform:translateX(-5920px)}47.810%{transform:translateX(-7400px)}49.410%{transform:translateX(-8880px)}53.195%{transform:translateX(-10360px)}66.658%{transform:translateX(-11840px)}68.571%{transform:translateX(-13320px)}69.740%{transform:translateX(-14800px)}72.409%{transform:translateX(-16280px)}77.002%{transform:translateX(-17760px)}77.011%{transform:translateX(-19240px)}78.227%{transform:translateX(-20720px)}78.232%{transform:translateX(-22200px)}78.233%{transform:translateX(-23680px)}78.233%{transform:translateX(-25160px)}78.236%{transform:translateX(-26640px)}78.236%{transform:translateX(-28120px)}78.239%{transform:translateX(-29600px)}78.239%{transform:translateX(-31080px)}78.240%{transform:translateX(-32560px)}78.242%{transform:translateX(-34040px)}78.243%{transform:translateX(-35520px)}78.287%{transform:translateX(-37000px)}78.288%{transform:translateX(-38480px)}100.000%{transform:translateX(-39960px)}}.a{fill:#e5e5e5}</style><g transform="translate(0)"/><g transform="translate(1480)"><text x="0" y="0" class="a">$</text></g><g transform="translate(2960)"><text x="0" y="0" class="a">$</text><text x="24" y="0" class="a">.</text></g><g transform="translate(4440)"><text x="0" y="0" class="a">$</text><text x="24" y="0" class="a">./</text></g><g transform="translate(5920)"><text x="0" y="0" class="a">$</text><text x="24" y="0" class="a">./c</text></g><g transform="translate(7400)"><text x="0" y="0" class="a">$</text><text x="24" y="0" class="a">./cl</text></g><g transform="translate(8880)"><text x="0" y="0" class="a">$</text><text x="24" y="0" class="a">./cli</text></g><g transform="translate(10360)"><text x="0" y="0" class="a">$</text><text x="24" y="0" class="a">./cli.js</text></g><g transform="translate(11840)"><text x="0" y="0" class="a">$</text><text x="24" y="0" class="a">./cli.js</text><text x="132" y="0" class="a">h</text></g><g transform="translate(13320)"><text x="0" y="0" class="a">$</text><text x="24" y="0" class="a">./cli.js</text><text x="132" y="0" class="a">he</text></g><g transform="translate(14800)"><text x="0" y="0" class="a">$</text><text x="24" y="0" class="a">./cli.js</text><text x="132" y="0" class="a">hel</text></g><g transform="translate(16280)"><text x="0" y="0" class="a">$</text><text x="24" y="0" class="a">./cli.js</text><text x="132" y="0" class="a">help</text></g><g transform="translate(17760)"><text x="0" y="0" class="a">$</text><text x="24" y="0" class="a">./cli.js</text><text x="132" y="0" class="a">help</text></g><g transform="translate(19240)"><text x="0" y="0" class="a">$</text><text x="24" y="0" class="a">./cli.js</text><text x="132" y="0" class="a">help</text></g><g transform="translate(20720)"><text x="0" y="0" class="a">$</text><text x="24" y="0" class="a">./cli.js</text><text x="132" y="0" class="a">help</text><text x="0" y="25" class="a">📋</text><text x="24" y="25" class="a">Taskly</text><text x="108" y="25" class="a">-</text><text x="132" y="25" class="a">Simple</text><text x="216" y="25" class="a">Task</text><text x="276" y="25" class="a">Management</text></g><g transform="translate(22200)"><text x="0" y="0" class="a">$</text><text x="24" y="0" class="a">./cli.js</text><text x="132" y="0" class="a">help</text><text x="0" y="25" class="a">📋</text><text x="24" y="25" class="a">Taskly</text><text x="108" y="25" class="a">-</text><text x="132" y="25" class="a">Simple</text><text x="216" y="25" class="a">Task</text><text x="276" y="25" class="a">Management</text><text x="0" y="75" class="a">Usage:</text></g><g transform="translate(23680)"><text x="0" y="0" class="a">$</text><text x="24" y="0" class="a">./cli.js</text><text x="132" y="0" class="a">help</text><text x="0" y="25" class="a">📋</text><text x="24" y="25" class="a">Taskly</text><text x="108" y="25" class="a">-</text><text x="132" y="25" class="a">Simple</text><text x="216" y="25" class="a">Task</text><text x="276" y="25" class="a">Management</text><text x="0" y="75" class="a">Usage:</text><text x="24" y="100" class="a">taskly</text><text x="108" y="100" class="a">&lt;command></text><text x="228" y="100" class="a">[options]</text><text x="0" y="150" class="a">Commands:</text></g><g transform="translate(25160)"><text x="0" y="0" class="a">$</text><text x="24" y="0" class="a">./cli.js</text><text x="132" y="0" class="a">help</text><text x="0" y="25" class="a">📋</text><text x="24" y="25" class="a">Taskly</text><text x="108" y="25" class="a">-</text><text x="132" y="25" class="a">Simple</text><text x="216" y="25" class="a">Task</text><text x="276" y="25" class="a">Management</text><text x="0" y="75" class="a">Usage:</text><text x="24" y="100" class="a">taskly</text><text x="108" y="100" class="a">&lt;command></text><text x="228" y="100" class="a">[options]</text><text x="0" y="150" class="a">Commands:</text><text x="24" y="175" class="a">init</text><text x="84" y="175" class="a">[project-name]</text><text x="312" y="175" class="a">Initialize</text><text x="444" y="175" class="a">new</text><text x="492" y="175" class="a">task</text><text x="552" y="175" class="a">workspace</text></g><g transform="translate(26640)"><text x="0" y="0" class="a">$</text><text x="24" y="0" class="a">./cli.js</text><text x="132" y="0" class="a">help</text><text x="0" y="25" class="a">📋</text><text x="24" y="25" class="a">Taskly</text><text x="108" y="25" class="a">-</text><text x="132" y="25" class="a">Simple</text><text x="216" y="25" class="a">Task</text><text x="276" y="25" class="a">Management</text><text x="0" y="75" class="a">Usage:</text><text x="24" y="100" class="a">taskly</text><text x="108" y="100" class="a">&lt;command></text><text x="228" y="100" class="a">[options]</text><text x="0" y="150" class="a">Commands:</text><text x="24" y="175" class="a">init</text><text x="84" y="175" class="a">[project-name]</text><text x="312" y="175" class="a">Initialize</text><text x="444" y="175" class="a">new</text><text x="492" y="175" class="a">task</text><text x="552" y="175" class="a">workspace</text><text x="24" y="200" class="a">add</text><text x="72" y="200" class="a">&lt;title></text><text x="168" y="200" class="a">[--priority=high|medium|low]</text><text x="540" y="200" class="a">Add</text><text x="588" y="200" class="a">new</text><text x="636" y="200" class="a">task</text><text x="24" y="225" class="a">list</text><text x="84" y="225" class="a">[--completed|--pending]</text><text x="528" y="225" class="a">List</text><text x="588" y="225" class="a">tasks</text><text x="24" y="250" class="a">complete</text><text x="132" y="250" class="a">&lt;number></text><text x="312" y="250" class="a">Mark</text><text x="372" y="250" class="a">task</text><text x="432" y="250" class="a">as</text><text x="468" y="250" class="a">completed</text></g><g transform="translate(28120)"><text x="0" y="0" class="a">$</text><text x="24" y="0" class="a">./cli.js</text><text x="132" y="0" class="a">help</text><text x="0" y="25" class="a">📋</text><text x="24" y="25" class="a">Taskly</text><text x="108" y="25" class="a">-</text><text x="132" y="25" class="a">Simple</text><text x="216" y="25" class="a">Task</text><text x="276" y="25" class="a">Management</text><text x="0" y="75" class="a">Usage:</text><text x="24" y="100" class="a">taskly</text><text x="108" y="100" class="a">&lt;command></text><text x="228" y="100" class="a">[options]</text><text x="0" y="150" class="a">Commands:</text><text x="24" y="175" class="a">init</text><text x="84" y="175" class="a">[project-name]</text><text x="312" y="175" class="a">Initialize</text><text x="444" y="175" class="a">new</text><text x="492" y="175" class="a">task</text><text x="552" y="175" class="a">workspace</text><text x="24" y="200" class="a">add</text><text x="72" y="200" class="a">&lt;title></text><text x="168" y="200" class="a">[--priority=high|medium|low]</text><text x="540" y="200" class="a">Add</text><text x="588" y="200" class="a">new</text><text x="636" y="200" class="a">task</text><text x="24" y="225" class="a">list</text><text x="84" y="225" class="a">[--completed|--pending]</text><text x="528" y="225" class="a">List</text><text x="588" y="225" class="a">tasks</text><text x="24" y="250" class="a">complete</text><text x="132" y="250" class="a">&lt;number></text><text x="312" y="250" class="a">Mark</text><text x="372" y="250" class="a">task</text><text x="432" y="250" class="a">as</text><text x="468" y="250" class="a">completed</text><text x="24" y="275" class="a">remove</text><text x="108" y="275" class="a">&lt;number></text><text x="312" y="275" class="a">Remove</text><text x="396" y="275" class="a">task</text></g><g transform="translate(29600)"><text x="0" y="0" class="a">$</text><text x="24" y="0" class="a">./cli.js</text><text x="132" y="0" class="a">help</text><text x="0" y="25" class="a">📋</text><text x="24" y="25" class="a">Taskly</text><text x="108" y="25" class="a">-</text><text x="132" y="25" class="a">Simple</text><text x="216" y="25" class="a">Task</text><text x="276" y="25" class="a">Management</text><text x="0" y="75" class="a">Usage:</text><text x="24" y="100" class="a">taskly</text><text x="108" y="100" class="a">&lt;command></text><text x="228" y="100" class="a">[options]</text><text x="0" y="150" class="a">Commands:</text><text x="24" y="175" class="a">init</text><text x="84" y="175" class="a">[project-name]</text><text x="312" y="175" class="a">Initialize</text><text x="444" y="175" class="a">new</text><text x="492" y="175" class="a">task</text><text x="552" y="175" class="a">workspace</text><text x="24" y="200" class="a">add</text><text x="72" y="200" class="a">&lt;title></text><text x="168" y="200" class="a">[--priority=high|medium|low]</text><text x="540" y="200" class="a">Add</text><text x="588" y="200" class="a">new</text><text x="636" y="200" class="a">task</text><text x="24" y="225" class="a">list</text><text x="84" y="225" class="a">[--completed|--pending]</text><text x="528" y="225" class="a">List</text><text x="588" y="225" class="a">tasks</text><text x="24" y="250" class="a">complete</text><text x="132" y="250" class="a">&lt;number></text><text x="312" y="250" class="a">Mark</text><text x="372" y="250" class="a">task</text><text x="432" y="250" class="a">as</text><text x="468" y="250" class="a">completed</text><text x="24" y="275" class="a">remove</text><text x="108" y="275" class="a">&lt;number></text><text x="312" y="275" class="a">Remove</text><text x="396" y="275" class="a">task</text><text x="24" y="300" class="a">help</text><text x="312" y="300" class="a">Show</text><text x="372" y="300" class="a">this</text><text x="432" y="300" class="a">help</text><text x="0" y="350" class="a">Examples:</text></g><g transform="translate(31080)"><text x="0" y="0" class="a">$</text><text x="24" y="0" class="a">./cli.js</text><text x="132" y="0" class="a">help</text><text x="0" y="25" class="a">📋</text><text x="24" y="25" class="a">Taskly</text><text x="108" y="25" class="a">-</text><text x="132" y="25" class="a">Simple</text><text x="216" y="25" class="a">Task</text><text x="276" y="25" class="a">Management</text><text x="0" y="75" class="a">Usage:</text><text x="24" y="100" class="a">taskly</text><text x="108" y="100" class="a">&lt;command></text><text x="228" y="100" class="a">[options]</text><text x="0" y="150" class="a">Commands:</text><text x="24" y="175" class="a">init</text><text x="84" y="175" class="a">[project-name]</text><text x="312" y="175" class="a">Initialize</text><text x="444" y="175" class="a">new</text><text x="492" y="175" class="a">task</text><text x="552" y="175" class="a">workspace</text><text x="24" y="200" class="a">add</text><text x="72" y="200" class="a">&lt;title></text><text x="168" y="200" class="a">[--priority=high|medium|low]</text><text x="540" y="200" class="a">Add</text><text x="588" y="200" class="a">new</text><text x="636" y="200" class="a">task</text><text x="24" y="225" class="a">list</text><text x="84" y="225" class="a">[--completed|--pending]</text><text x="528" y="225" class="a">List</text><text x="588" y="225" class="a">tasks</text><text x="24" y="250" class="a">complete</text><text x="132" y="250" class="a">&lt;number></text><text x="312" y="250" class="a">Mark</text><text x="372" y="250" class="a">task</text><text x="432" y="250" class="a">as</text><text x="468" y="250" class="a">completed</text><text x="24" y="275" class="a">remove</text><text x="108" y="275" class="a">&lt;number></text><text x="312" y="275" class="a">Remove</text><text x="396" y="275" class="a">task</text><text x="24" y="300" class="a">help</text><text x="312" y="300" class="a">Show</text><text x="372" y="300" class="a">this</text><text x="432" y="300" class="a">help</text><text x="0" y="350" class="a">Examples:</text><text x="24" y="375" class="a">taskly</text><text x="108" y="375" class="a">init</text><text x="168" y="375" class="a">my-project</text><text x="24" y="400" class="a">taskly</text><text x="108" y="400" class="a">add</text><text x="156" y="400" class="a">"Buy</text><text x="216" y="400" class="a">groceries"</text><text x="348" y="400" class="a">--priority=high</text></g><g transform="translate(32560)"><text x="0" y="0" class="a">$</text><text x="24" y="0" class="a">./cli.js</text><text x="132" y="0" class="a">help</text><text x="0" y="25" class="a">📋</text><text x="24" y="25" class="a">Taskly</text><text x="108" y="25" class="a">-</text><text x="132" y="25" class="a">Simple</text><text x="216" y="25" class="a">Task</text><text x="276" y="25" class="a">Management</text><text x="0" y="75" class="a">Usage:</text><text x="24" y="100" class="a">taskly</text><text x="108" y="100" class="a">&lt;command></text><text x="228" y="100" class="a">[options]</text><text x="0" y="150" class="a">Commands:</text><text x="24" y="175" class="a">init</text><text x="84" y="175" class="a">[project-name]</text><text x="312" y="175" class="a">Initialize</text><text x="444" y="175" class="a">new</text><text x="492" y="175" class="a">task</text><text x="552" y="175" class="a">workspace</text><text x="24" y="200" class="a">add</text><text x="72" y="200" class="a">&lt;title></text><text x="168" y="200" class="a">[--priority=high|medium|low]</text><text x="540" y="200" class="a">Add</text><text x="588" y="200" class="a">new</text><text x="636" y="200" class="a">task</text><text x="24" y="225" class="a">list</text><text x="84" y="225" class="a">[--completed|--pending]</text><text x="528" y="225" class="a">List</text><text x="588" y="225" class="a">tasks</text><text x="24" y="250" class="a">complete</text><text x="132" y="250" class="a">&lt;number></text><text x="312" y="250" class="a">Mark</text><text x="372" y="250" class="a">task</text><text x="432" y="250" class="a">as</text><text x="468" y="250" class="a">completed</text><text x="24" y="275" class="a">remove</text><text x="108" y="275" class="a">&lt;number></text><text x="312" y="275" class="a">Remove</text><text x="396" y="275" class="a">task</text><text x="24" y="300" class="a">help</text><text x="312" y="300" class="a">Show</text><text x="372" y="300" class="a">this</text><text x="432" y="300" class="a">help</text><text x="0" y="350" class="a">Examples:</text><text x="24" y="375" class="a">taskly</text><text x="108" y="375" class="a">init</text><text x="168" y="375" class="a">my-project</text><text x="24" y="400" class="a">taskly</text><text x="108" y="400" class="a">add</text><text x="156" y="400" class="a">"Buy</text><text x="216" y="400" class="a">groceries"</text><text x="348" y="400" class="a">--priority=high</text><text x="24" y="425" class="a">taskly</text><text x="108" y="425" class="a">list</text><text x="168" y="425" class="a">--pending</text><text x="24" y="450" class="a">taskly</text><text x="108" y="450" class="a">complete</text><text x="216" y="450" class="a">1</text></g><g transform="translate(34040)"><text x="0" y="0" class="a">$</text><text x="24" y="0" class="a">./cli.js</text><text x="132" y="0" class="a">help</text><text x="0" y="25" class="a">📋</text><text x="24" y="25" class="a">Taskly</text><text x="108" y="25" class="a">-</text><text x="132" y="25" class="a">Simple</text><text x="216" y="25" class="a">Task</text><text x="276" y="25" class="a">Management</text><text x="0" y="75" class="a">Usage:</text><text x="24" y="100" class="a">taskly</text><text x="108" y="100" class="a">&lt;command></text><text x="228" y="100" class="a">[options]</text><text x="0" y="150" class="a">Commands:</text><text x="24" y="175" class="a">init</text><text x="84" y="175" class="a">[project-name]</text><text x="312" y="175" class="a">Initialize</text><text x="444" y="175" class="a">new</text><text x="492" y="175" class="a">task</text><text x="552" y="175" class="a">workspace</text><text x="24" y="200" class="a">add</text><text x="72" y="200" class="a">&lt;title></text><text x="168" y="200" class="a">[--priority=high|medium|low]</text><text x="540" y="200" class="a">Add</text><text x="588" y="200" class="a">new</text><text x="636" y="200" class="a">task</text><text x="24" y="225" class="a">list</text><text x="84" y="225" class="a">[--completed|--pending]</text><text x="528" y="225" class="a">List</text><text x="588" y="225" class="a">tasks</text><text x="24" y="250" class="a">complete</text><text x="132" y="250" class="a">&lt;number></text><text x="312" y="250" class="a">Mark</text><text x="372" y="250" class="a">task</text><text x="432" y="250" class="a">as</text><text x="468" y="250" class="a">completed</text><text x="24" y="275" class="a">remove</text><text x="108" y="275" class="a">&lt;number></text><text x="312" y="275" class="a">Remove</text><text x="396" y="275" class="a">task</text><text x="24" y="300" class="a">help</text><text x="312" y="300" class="a">Show</text><text x="372" y="300" class="a">this</text><text x="432" y="300" class="a">help</text><text x="0" y="350" class="a">Examples:</text><text x="24" y="375" class="a">taskly</text><text x="108" y="375" class="a">init</text><text x="168" y="375" class="a">my-project</text><text x="24" y="400" class="a">taskly</text><text x="108" y="400" class="a">add</text><text x="156" y="400" class="a">"Buy</text><text x="216" y="400" class="a">groceries"</text><text x="348" y="400" class="a">--priority=high</text><text x="24" y="425" class="a">taskly</text><text x="108" y="425" class="a">list</text><text x="168" y="425" class="a">--pending</text><text x="24" y="450" class="a">taskly</text><text x="108" y="450" class="a">complete</text><text x="216" y="450" class="a">1</text></g><g transform="translate(35520)"><text x="0" y="0" class="a">$</text><text x="24" y="0" class="a">./cli.js</text><text x="132" y="0" class="a">help</text><text x="0" y="25" class="a">📋</text><text x="24" y="25" class="a">Taskly</text><text x="108" y="25" class="a">-</text><text x="132" y="25" class="a">Simple</text><text x="216" y="25" class="a">Task</text><text x="276" y="25" class="a">Management</text><text x="0" y="75" class="a">Usage:</text><text x="24" y="100" class="a">taskly</text><text x="108" y="100" class="a">&lt;command></text><text x="228" y="100" class="a">[options]</text><text x="0" y="150" class="a">Commands:</text><text x="24" y="175" class="a">init</text><text x="84" y="175" class="a">[project-name]</text><text x="312" y="175" class="a">Initialize</text><text x="444" y="175" class="a">new</text><text x="492" y="175" class="a">task</text><text x="552" y="175" class="a">workspace</text><text x="24" y="200" class="a">add</text><text x="72" y="200" class="a">&lt;title></text><text x="168" y="200" class="a">[--priority=high|medium|low]</text><text x="540" y="200" class="a">Add</text><text x="588" y="200" class="a">new</text><text x="636" y="200" class="a">task</text><text x="24" y="225" class="a">list</text><text x="84" y="225" class="a">[--completed|--pending]</text><text x="528" y="225" class="a">List</text><text x="588" y="225" class="a">tasks</text><text x="24" y="250" class="a">complete</text><text x="132" y="250" class="a">&lt;number></text><text x="312" y="250" class="a">Mark</text><text x="372" y="250" class="a">task</text><text x="432" y="250" class="a">as</text><text x="468" y="250" class="a">completed</text><text x="24" y="275" class="a">remove</text><text x="108" y="275" class="a">&lt;number></text><text x="312" y="275" class="a">Remove</text><text x="396" y="275" class="a">task</text><text x="24" y="300" class="a">help</text><text x="312" y="300" class="a">Show</text><text x="372" y="300" class="a">this</text><text x="432" y="300" class="a">help</text><text x="0" y="350" class="a">Examples:</text><text x="24" y="375" class="a">taskly</text><text x="108" y="375" class="a">init</text><text x="168" y="375" class="a">my-project</text><text x="24" y="400" class="a">taskly</text><text x="108" y="400" class="a">add</text><text x="156" y="400" class="a">"Buy</text><text x="216" y="400" class="a">groceries"</text><text x="348" y="400" class="a">--priority=high</text><text x="24" y="425" class="a">taskly</text><text x="108" y="425" class="a">list</text><text x="168" y="425" class="a">--pending</text><text x="24" y="450" class="a">taskly</text><text x="108" y="450" class="a">complete</text><text x="216" y="450" class="a">1</text><text x="0" y="500" class="a">📚</text><text x="24" y="500" class="a">Documentation:</text><text x="204" y="500" class="a">https://github.com/deepguide-ai/dg-demo</text></g><g transform="translate(37000)"><text x="0" y="0" class="a">$</text><text x="24" y="0" class="a">./cli.js</text><text x="132" y="0" class="a">help</text><text x="0" y="25" class="a">📋</text><text x="24" y="25" class="a">Taskly</text><text x="108" y="25" class="a">-</text><text x="132" y="25" class="a">Simple</text><text x="216" y="25" class="a">Task</text><text x="276" y="25" class="a">Management</text><text x="0" y="75" class="a">Usage:</text><text x="24" y="100" class="a">taskly</text><text x="108" y="100" class="a">&lt;command></text><text x="228" y="100" class="a">[options]</text><text x="0" y="150" class="a">Commands:</text><text x="24" y="175" class="a">init</text><text x="84" y="175" class="a">[project-name]</text><text x="312" y="175" class="a">Initialize</text><text x="444" y="175" class="a">new</text><text x="492" y="175" class="a">task</text><text x="552" y="175" class="a">workspace</text><text x="24" y="200" class="a">add</text><text x="72" y="200" class="a">&lt;title></text><text x="168" y="200" class="a">[--priority=high|medium|low]</text><text x="540" y="200" class="a">Add</text><text x="588" y="200" class="a">new</text><text x="636" y="200" class="a">task</text><text x="24" y="225" class="a">list</text><text x="84" y="225" class="a">[--completed|--pending]</text><text x="528" y="225" class="a">List</text><text x="588" y="225" class="a">tasks</text><text x="24" y="250" class="a">complete</text><text x="132" y="250" class="a">&lt;number></text><text x="312" y="250" class="a">Mark</text><text x="372" y="250" class="a">task</text><text x="432" y="250" class="a">as</text><text x="468" y="250" class="a">completed</text><text x="24" y="275" class="a">remove</text><text x="108" y="275" class="a">&lt;number></text><text x="312" y="275" class="a">Remove</text><text x="396" y="275" class="a">task</text><text x="24" y="300" class="a">help</text><text x="312" y="300" class="a">Show</text><text x="372" y="300" class="a">this</text><text x="432" y="300" class="a">help</text><text x="0" y="350" class="a">Examples:</text><text x="24" y="375" class="a">taskly</text><text x="108" y="375" class="a">init</text><text x="168" y="375" class="a">my-project</text><text x="24" y="400" class="a">taskly</text><text x="108" y="400" class="a">add</text><text x="156" y="400" class="a">"Buy</text><text x="216" y="400" class="a">groceries"</text><text x="348" y="400" class="a">--priority=high</text><text x="24" y="425" class="a">taskly</text><text x="108" y="425" class="a">list</text><text x="168" y="425" class="a">--pending</text><text x="24" y="450" class="a">taskly</text><text x="108" y="450" class="a">complete</text><text x="216" y="450" class="a">1</text><text x="0" y="500" class="a">📚</text><text x="24" y="500" class="a">Documentation:</text><text x="204" y="500" class="a">https://github.com/deepguide-ai/dg-demo</text></g><g transform="translate(38480)"><text x="0" y="0" class="a">$</text><text x="24" y="0" class="a">./cli.js</text><text x="132" y="0" class="a">help</text><text x="0" y="25" class="a">📋</text><text x="24" y="25" class="a">Taskly</text><text x="108" y="25" class="a">-</text><text x="132" y="25" class="a">Simple</text><text x="216" y="25" class="a">Task</text><text x="276" y="25" class="a">Management</text><text x="0" y="75" class="a">Usage:</text><text x="24" y="100" class="a">taskly</text><text x="108" y="100" class="a">&lt;command></text><text x="228" y="100" class="a">[options]</text><text x="0" y="150" class="a">Commands:</text><text x="24" y="175" class="a">init</text><text x="84" y="175" class="a">[project-name]</text><text x="312" y="175" class="a">Initialize</text><text x="444" y="175" class="a">new</text><text x="492" y="175" class="a">task</text><text x="552" y="175" class="a">workspace</text><text x="24" y="200" class="a">add</text><text x="72" y="200" class="a">&lt;title></text><text x="168" y="200" class="a">[--priority=high|medium|low]</text><text x="540" y="200" class="a">Add</text><text x="588" y="200" class="a">new</text><text x="636" y="200" class="a">task</text><text x="24" y="225" class="a">list</text><text x="84" y="225" class="a">[--completed|--pending]</text><text x="528" y="225" class="a">List</text><text x="588" y="225" class="a">tasks</text><text x="24" y="250" class="a">complete</text><text x="132" y="250" class="a">&lt;number></text><text x="312" y="250" class="a">Mark</text><text x="372" y="250" class="a">task</text><text x="432" y="250" class="a">as</text><text x="468" y="250" class="a">completed</text><text x="24" y="275" class="a">remove</text><text x="108" y="275" class="a">&lt;number></text><text x="312" y="275" class="a">Remove</text><text x="396" y="275" class="a">task</text><text x="24" y="300" class="a">help</text><text x="312" y="300" class="a">Show</text><text x="372" y="300" class="a">this</text><text x="432" y="300" class="a">help</text><text x="0" y="350" class="a">Examples:</text><text x="24" y="375" class="a">taskly</text><text x="108" y="375" class="a">init</text><text x="168" y="375" class="a">my-project</text><text x="24" y="400" class="a">taskly</text><text x="108" y="400" class="a">add</text><text x="156" y="400" class="a">"Buy</text><text x="216" y="400" class="a">groceries"</text><text x="348" y="400" class="a">--priority=high</text><text x="24" y="425" class="a">taskly</text><text x="108" y="425" class="a">list</text><text x="168" y="425" class="a">--pending</text><text x="24" y="450" class="a">taskly</text><text x="108" y="450" class="a">complete</text><text x="216" y="450" class="a">1</text><text x="0" y="500" class="a">📚</text><text x="24" y="500" class="a">Documentation:</text><text x="204" y="500" class="a">https://github.com/deepguide-ai/dg-demo</text><text x="0" y="525" class="a">$</text></g><g transform="translate(39960)"><text x="0" y="0" class="a">$</text><text x="24" y="0" class="a">./cli.js</text><text x="132" y="0" class="a">help</text><text x="0" y="25" class="a">📋</text><text x="24" y="25" class="a">Taskly</text><text x="108" y="25" class="a">-</text><text x="132" y="25" class="a">Simple</text><text x="216" y="25" class="a">Task</text><text x="276" y="25" class="a">Management</text><text x="0" y="75" class="a">Usage:</text><text x="24" y="100" class="a">taskly</text><text x="108" y="100" class="a">&lt;command></text><text x="228" y="100" class="a">[options]</text><text x="0" y="150" class="a">Commands:</text><text x="24" y="175" class="a">init</text><text x="84" y="175" class="a">[project-name]</text><text x="312" y="175" class="a">Initialize</text><text x="444" y="175" class="a">new</text><text x="492" y="175" class="a">task</text><text x="552" y="175" class="a">workspace</text><text x="24" y="200" class="a">add</text><text x="72" y="200" class="a">&lt;title></text><text x="168" y="200" class="a">[--priority=high|medium|low]</text><text x="540" y="200" class="a">Add</text><text x="588" y="200" class="a">new</text><text x="636" y="200" class="a">task</text><text x="24" y="225" class="a">list</text><text x="84" y="225" class="a">[--completed|--pending]</text><text x="528" y="225" class="a">List</text><text x="588" y="225" class="a">tasks</text><text x="24" y="250" class="a">complete</text><text x="132" y="250" class="a">&lt;number></text><text x="312" y="250" class="a">Mark</text><text x="372" y="250" class="a">task</text><text x="432" y="250" class="a">as</text><text x="468" y="250" class="a">completed</text><text x="24" y="275" class="a">remove</text><text x="108" y="275" class="a">&lt;number></text><text x="312" y="275" class="a">Remove</text><text x="396" y="275" class="a">task</text><text x="24" y="300" class="a">help</text><text x="312" y="300" class="a">Show</text><text x="372" y="300" class="a">this</text><text x="432" y="300" class="a">help</text><text x="0" y="350" class="a">Examples:</text><text x="24" y="375" class="a">taskly</text><text x="108" y="375" class="a">init</text><text x="168" y="375" class="a">my-project</text><text x="24" y="400" class="a">taskly</text><text x="108" y="400" class="a">add</text><text x="156" y="400" class="a">"Buy</text><text x="216" y="400" class="a">groceries"</text><text x="348" y="400" class="a">--priority=high</text><text x="24" y="425" class="a">taskly</text><text x="108" y="425" class="a">list</text><text x="168" y="425" class="a">--pending</text><text x="24" y="450" class="a">taskly</text><text x="108" y="450" class="a">complete</text><text x="216" y="450" class="a">1</text><text x="0" y="500" class="a">📚</text><text x="24" y="500" class="a">Documentation:</text><text x="204" y="500" class="a">https://github.com/deepguide-ai/dg-demo</text><text x="0" y="525" class="a">$</text></g></g></g></svg>